 http://alu5.rhzll.qjtv.e.s48.incloak.com/title/tt0096446/
Source: Willow.1988.720p.BluRay.x264-HD4U Thanks!
Subs ( subrip ) : Arabic, Brazilian, Danish, Dutch, English, Finnish, Polish, Portuguese, Servian.
Subs ( vobsub ) : Danish, Dutch, English, Finnish, French, German, Italian, Japanese, Norwegian, Spanish, Swedish.
Sample and screens included.
General
Complete name : Willow-720p MP4 AAC x264 BRRip 1988-CC.mp4
Format : MPEG-4
Format profile : Base Media
Codec ID : isom
File size : 2.88 GiB
Duration : 2h 5mn
Overall bit rate mode : Variable
Overall bit rate : 3 275 Kbps
Encoded date : UTC 2013-03-03 06:38:03
Video
ID : 1
Format : AVC
Format/Info : Advanced Video Codec
Format profile : High@L4.1
Format settings, CABAC : Yes
Format settings, ReFrames : 5 frames
Codec ID : avc1
Codec ID/Info : Advanced Video Coding
Duration : 2h 5mn
Bit rate : 2 995 Kbps
Maximum bit rate : 27.6 Mbps
Width : 1 280 pixels
Height : 536 pixels
Display aspect ratio : 2.40:1
Frame rate mode : Variable
Frame rate : 23.976 fps
Minimum frame rate : 15.873 fps
Maximum frame rate : 25.000 fps
Color space : YUV
Chroma subsampling : 4:2:0
Bit depth : 8 bits
Scan type : Progressive
Bits/(Pixel*Frame) : 0.182
Stream size : 2.60 GiB (90%)
Writing library : x264 core 112
Audio
ID : 2
Format : AAC
Format/Info : Advanced Audio Codec
Format profile : LC
Codec ID : 40
Duration : 2h 5mn
Bit rate mode : Variable
Bit rate : 320 Kbps
Maximum bit rate : 558 Kbps
Channel(s) : 6 channels
Channel positions : Front: L C R, Side: L R, LFE
Sampling rate : 48.0 KHz
Compression mode : Lossy
Delay relative to video : 83ms
Stream size : 288 MiB (10%)
Language : English
Enjoy...
Requested by Clair
Coming soon: Army of Shadows, Tetro, The Insider and more.